# xmcd CD database file generated by OrangeCD 6.3
#
# Track frame offsets:
#	150
#	16509
#	29955
#	58442
#	74845
#	89224
#	106941
#	123610
#	140465
#	154837
#	169896
#	198563
#	216551
#
# Disc length: 3106 seconds
#
# Revision: 0
# Processed by: cddbd v1.5.2PL0 Copyright (c) Steve Scherf et al.
# Submitted via: OrangeCD 6.3
#
DISCID=d60c200d
DTITLE=Jinny Marsh's Hot Kugel Klezmer Band - Grandma's Recipes - A Klezmer Cel
DTITLE=ebration
DYEAR=2001
DGENRE=
TTITLE0=Der Heyser Bulgar
TTITLE1=A Heymisher Bulgar
TTITLE2=Fiddler on the Roof Medley
TTITLE3=Y'rushalayim Shel Zahav
TTITLE4=Bei Mir Bis Du Shein
TTITLE5=Belz
TTITLE6=Freilach Medley
TTITLE7=And the Angels Sing
TTITLE8=Second Hand Rose
TTITLE9=L'Cha Dodi
TTITLE10=Violin Medley
TTITLE11=Adon Olam
TTITLE12=Rumania, Rumania
EXTD=
EXTT0=
EXTT1=
EXTT2=
EXTT3=
EXTT4=
EXTT5=
EXTT6=
EXTT7=
EXTT8=
EXTT9=
EXTT10=
EXTT11=
EXTT12=
PLAYORDER=
